<?xml version="1.0" encoding="utf-8"?>
<!-- Generator: Adobe Illustrator 28.3.0, SVG Export Plug-In . SVG Version: 6.00 Build 0)  -->
<svg version="1.1" id="Layer_1" xmlns="http://www.w3.org/2000/svg" xmlns:xlink="http://www.w3.org/1999/xlink" x="0px" y="0px"
	 viewBox="0 0 3000 940" style="enable-background:new 0 0 3000 940;" xml:space="preserve">
<style type="text/css">
	.st0{fill:#b38600;}
	.st1{fill:#dba400;}
	.st2{fill:#FFFFFF;}
</style>
<g>
	<g>
		<circle class="st0" cx="362.77" cy="174.42" r="44.06"/>
		<circle class="st0" cx="639.73" cy="325.49" r="44.06"/>
		<circle class="st0" cx="639.73" cy="640.22" r="44.06"/>
		<circle class="st0" cx="362.77" cy="797.58" r="44.06"/>
		<circle class="st0" cx="92.1" cy="640.22" r="44.06"/>
		<circle class="st0" cx="92.1" cy="325.49" r="44.06"/>
		<path class="st1" d="M157.01,447.76c-1,4.65-6.01,7.19-10.24,5.01c-13.69-7.05-40.88-16.36-54.66,11.2
			c-14.08,28.17-13.83,60.04-11.2,81.62c1.64,13.47-8.69,25.39-22.26,25.39h0c-12.88,0-23.1-10.77-22.43-23.64
			c2.12-40.43,10.17-121.83,40.8-156.25c1.47-1.65,3.65-2.44,5.85-2.25c9.91,0.86,39.7,0.96,59.6-25.58
			c14.16-18.88,10.62-41.31,7.97-51.34c-0.85-3.21,0.69-6.57,3.62-8.13l72.59-38.72c9.63-5.14,21.54-2.81,28.52,5.58l0.28,0.33
			c9.15,10.99,6.09,27.4-6.21,34.7C220.48,322.74,175.28,362.32,157.01,447.76z"/>
		<path class="st1" d="M291.9,285.32c-4.57,1.33-9.18-1.88-9.27-6.64c-0.3-15.39-5.01-43.75-35.81-42.79
			c-31.48,0.98-59.41,16.33-77.15,28.88c-11.08,7.84-26.47,4.4-32.91-7.54l0,0c-6.12-11.34-1.49-25.45,10.16-30.96
			c36.59-17.33,112.06-48.88,156.89-38.26c2.15,0.51,3.88,2.05,4.76,4.08c3.95,9.14,18,35.39,50.81,40.31
			c23.34,3.5,41.4-10.26,48.97-17.36c2.42-2.27,6.11-2.51,8.88-0.67l68.54,45.51c9.09,6.04,12.69,17.62,8.63,27.75l-0.16,0.4
			c-5.32,13.27-21.23,18.36-33.49,11.01C432.06,281.84,375.77,260.85,291.9,285.32z"/>
		<path class="st1" d="M498.93,321.51c-3.48-3.24-3.09-8.85,0.95-11.36c13.07-8.14,35.01-26.71,18.4-52.67
			c-16.96-26.53-44.46-42.66-64.33-51.46c-12.41-5.5-17.34-20.48-10.39-32.13l0,0c6.6-11.06,21.09-14.32,31.79-7.14
			c33.63,22.55,99.39,71.19,113.24,115.13c0.66,2.11,0.23,4.38-1.07,6.17c-5.82,8.07-21.17,33.59-8.59,64.29
			c8.95,21.84,30.02,30.3,40,33.16c3.19,0.92,5.29,3.96,5.13,7.28l-3.97,82.18c-0.53,10.9-8.63,19.93-19.41,21.63l-0.43,0.07
			c-14.12,2.23-26.65-8.82-26.61-23.12C573.72,440.09,562.91,381,498.93,321.51z"/>
		<path class="st1" d="M562.95,520.6c1.2-4.6,6.32-6.92,10.45-4.56c13.37,7.64,40.13,18.13,55.1-8.81
			c15.3-27.53,16.44-59.38,14.75-81.05c-1.05-13.53,9.79-24.99,23.35-24.39h0c12.87,0.56,22.61,11.77,21.38,24.59
			c-3.88,40.3-15.48,121.27-47.58,154.32c-1.54,1.58-3.75,2.28-5.94,1.99c-9.87-1.29-39.62-2.69-60.66,22.96
			c-14.97,18.25-12.41,40.81-10.2,50.94c0.71,3.24-0.98,6.54-3.97,7.97l-74.21,35.51c-9.84,4.71-21.64,1.86-28.25-6.82l-0.26-0.34
			c-8.67-11.37-4.89-27.64,7.72-34.4C494.08,642.72,540.96,605.16,562.95,520.6z"/>
		<path class="st1" d="M434.44,677.59c4.5-1.54,9.26,1.45,9.57,6.2c1.01,15.36,7.04,43.47,37.76,41.08
			c31.4-2.44,58.58-19.08,75.73-32.44c10.7-8.35,26.24-5.63,33.23,6l0,0c6.64,11.04,2.67,25.35-8.7,31.4
			c-35.74,19.01-109.66,54.04-154.94,45.52c-2.17-0.41-3.97-1.87-4.94-3.85c-4.37-8.94-19.63-34.52-52.63-37.9
			c-23.48-2.41-40.88,12.18-48.11,19.62c-2.31,2.38-5.99,2.79-8.84,1.09l-70.58-42.27c-9.36-5.61-13.5-17.01-9.92-27.32l0.14-0.41
			c4.7-13.51,20.35-19.33,32.94-12.56C294.59,687.6,351.8,705.95,434.44,677.59z"/>
		<path class="st1" d="M230.81,641.16c3.55,3.17,3.27,8.78-0.71,11.38c-12.89,8.42-34.43,27.45-17.28,53.05
			c17.52,26.17,45.35,41.7,65.41,50.09c12.52,5.23,17.77,20.11,11.07,31.9v0c-6.37,11.2-20.78,14.76-31.63,7.81
			c-34.1-21.83-100.87-69.07-115.65-112.71c-0.71-2.09-0.32-4.38,0.93-6.2c5.65-8.19,20.45-34.03,7.22-64.46
			c-9.41-21.65-30.66-29.65-40.69-32.3c-3.21-0.85-5.37-3.85-5.28-7.17l2.23-82.24c0.3-10.91,8.21-20.11,18.95-22.04l0.42-0.08
			c14.07-2.53,26.83,8.25,27.09,22.55C153.52,524.18,165.58,583.03,230.81,641.16z"/>
	</g>
	<g>
		<polygon class="st1" points="2904.3,250.02 2899.25,371.31 2943.93,250.02 		"/>
		<polygon class="st0" points="2943.93,250.02 2970,179.27 2783.02,250.02 2861.83,250.02 2904.3,250.02 		"/>
	</g>
	<g>
		<path class="st2" d="M926.02,628.97v-14.78h-43.29c-13.41,0-24.29,10.87-24.29,24.29v0c0,13.41,10.87,24.29,24.29,24.29h20.06
			c5.83,0,10.56,4.73,10.56,10.56v0c0,5.83-4.73,10.56-10.56,10.56h-42.24v14.78h44.35c14,0,25.34-11.35,25.34-25.34v0
			c0-14-11.35-25.34-25.34-25.34h-20.06c-5.25,0-9.5-4.25-9.5-9.5l0,0c0-5.25,4.25-9.5,9.5-9.5H926.02z"/>
		<path class="st2" d="M1021.05,614.19h-16.89v61.23c0,5.84-4.73,10.58-10.58,10.58h-18.05c-5.84,0-10.58-4.74-10.58-10.58v-61.23
			h-17.82l0,60.79c0,14.25,11.55,25.8,25.8,25.8h22.32c14.25,0,25.8-11.55,25.8-25.8L1021.05,614.19z"/>
		<path class="st2" d="M1160.43,698.66l0-62c0-12.41-10.06-22.47-22.47-22.47h-22.63c-5.31,0-10.18,1.85-14.02,4.93
			c-3.85-3.08-8.72-4.93-14.02-4.93h-22.63c-12.41,0-22.47,10.06-22.47,22.47l0,62h16.89v-62.14c0-5.34,4.33-9.66,9.66-9.66h14.47
			c5.34,0,9.66,4.33,9.66,9.66v62.14h0h16.89h0l0-62.14c0-5.34,4.33-9.66,9.66-9.66h14.47c5.34,0,9.66,4.33,9.66,9.66v62.14H1160.43
			z"/>
		<path class="st2" d="M1299.81,698.66l0-62c0-12.41-10.06-22.47-22.47-22.47h-22.63c-5.31,0-10.18,1.85-14.02,4.93
			c-3.85-3.08-8.72-4.93-14.02-4.93h-22.63c-12.41,0-22.47,10.06-22.47,22.47l0,62h16.89v-62.14c0-5.34,4.33-9.66,9.66-9.66h14.47
			c5.34,0,9.66,4.33,9.66,9.66v62.14h0h16.89h0l0-62.14c0-5.34,4.33-9.66,9.66-9.66h14.47c5.34,0,9.66,4.33,9.66,9.66v62.14H1299.81
			z"/>
		<rect x="1320.93" y="614.19" class="st2" width="19.01" height="84.47"/>
		<path class="st2" d="M1407.51,628.97v-14.78h-29.57v-21.12h-19.01v84.07c0,11.89,9.64,21.52,21.52,21.52h27.05v-14.78h-22.78
			c-3.75,0-6.78-3.04-6.78-6.78v-48.12H1407.51z"/>
	</g>
	<g>
		<polygon class="st2" points="1049.73,495.12 975.12,276.59 950.6,276.59 875.34,494.11 802.4,276.59 774.99,276.59 860.09,529 
			887.86,529 962.13,314.09 1036.06,529 1064.19,529 1149.29,276.59 1123.68,276.59 		"/>
		<path class="st2" d="M1400.8,310.85c-11.9-11.54-25.9-20.49-42.01-26.87c-16.11-6.37-33.66-9.56-52.65-9.56
			c-19.23,0-36.9,3.19-53.01,9.56c-16.11,6.37-30.11,15.39-42.01,27.05c-11.9,11.66-21.16,25.24-27.77,40.75
			c-6.61,15.51-9.92,32.51-9.92,51.02c0,18.51,3.3,35.52,9.92,51.02c6.61,15.51,15.87,29.09,27.77,40.75
			c11.9,11.66,25.96,20.68,42.19,27.04c16.23,6.37,33.83,9.56,52.83,9.56c18.99,0,36.54-3.18,52.65-9.56
			c16.1-6.37,30.11-15.33,42.01-26.86c11.9-11.54,21.15-25.12,27.77-40.75c6.61-15.62,9.92-32.69,9.92-51.2
			c0-18.51-3.31-35.58-9.92-51.2C1421.95,335.97,1412.7,322.38,1400.8,310.85z M1403.86,444.45c-5.29,12.62-12.68,23.68-22.18,33.17
			c-9.5,9.5-20.68,16.83-33.53,22c-12.86,5.17-26.87,7.75-42.01,7.75c-15.14,0-29.21-2.58-42.19-7.75
			c-12.98-5.17-24.28-12.5-33.89-22c-9.62-9.49-17.07-20.61-22.36-33.35c-5.29-12.74-7.93-26.56-7.93-41.47
			c0-15.14,2.64-29.03,7.93-41.65c5.28-12.62,12.74-23.68,22.36-33.18c9.61-9.49,20.91-16.82,33.89-22
			c12.98-5.17,27.05-7.75,42.19-7.75c15.14,0,29.15,2.59,42.01,7.75c12.86,5.17,24.04,12.5,33.53,22
			c9.49,9.5,16.89,20.55,22.18,33.18c5.28,12.62,7.93,26.5,7.93,41.65S1409.15,431.82,1403.86,444.45z"/>
		<path class="st2" d="M1647.98,438.68c15.39-6.85,27.22-16.71,35.52-29.57c8.3-12.86,12.45-28.18,12.45-45.98
			c0-18.27-4.15-33.83-12.45-46.7c-8.29-12.86-20.13-22.72-35.52-29.57c-15.39-6.85-33.77-10.28-55.17-10.28h-94.47V529h26.68
			v-80.05h67.79c7.12,0,13.87-0.42,20.33-1.17L1670.7,529h29.21l-61.72-86.61C1641.57,441.28,1644.85,440.07,1647.98,438.68z
			 M1592.09,426.23h-67.07V299.67h67.07c25.24,0,44.41,5.53,57.51,16.59c13.1,11.06,19.65,26.68,19.65,46.88
			c0,19.96-6.55,35.46-19.65,46.52C1636.5,420.71,1617.33,426.23,1592.09,426.23z"/>
		<polygon class="st2" points="1785.73,276.59 1759.05,276.59 1759.05,529 1927.08,529 1927.08,505.93 1785.73,505.93 		"/>
		<path class="st2" d="M2145.06,292.64c-20.32-10.69-43.93-16.05-70.85-16.05h-102.77V529h102.77c26.92,0,50.54-5.35,70.85-16.05
			c20.31-10.7,36.12-25.54,47.42-44.53c11.3-18.99,16.95-40.86,16.95-65.63c0-24.76-5.65-46.64-16.95-65.63
			C2181.18,318.18,2165.37,303.34,2145.06,292.64z M2169.4,456.34c-9.14,15.51-21.94,27.65-38.4,36.42
			c-16.47,8.78-35.88,13.16-58.24,13.16h-74.64V299.67h74.64c22.36,0,41.77,4.39,58.24,13.16c16.46,8.78,29.26,20.86,38.4,36.24
			c9.13,15.39,13.7,33.3,13.7,53.73C2183.1,422.99,2178.54,440.84,2169.4,456.34z"/>
		<polygon class="st2" points="2506.91,366.02 2428.3,366.02 2428.3,276.59 2343.2,276.59 2343.2,529 2428.3,529 2428.3,435.97 
			2506.91,435.97 2506.91,529 2592.01,529 2592.01,276.59 2506.91,276.59 		"/>
		<path class="st2" d="M2784.21,529h90.87l-52.98-77.64c14.15-7.24,25.32-17,33.5-29.28c9.37-14.06,14.06-30.83,14.06-50.3
			c0-19.47-4.69-36.36-14.06-50.66c-9.38-14.3-22.66-25.3-39.85-32.99c-17.19-7.69-37.56-11.54-61.12-11.54h-121.52V529h85.1v-63.46
			h23.18L2784.21,529z M2775.37,350.15c5.64,5.29,8.47,12.5,8.47,21.63c0,9.14-2.83,16.35-8.47,21.64
			c-5.65,5.29-14.37,7.93-26.14,7.93h-31.01v-59.14h31.01C2761.01,342.22,2769.72,344.87,2775.37,350.15z"/>
	</g>
</g>
</svg>
