<?xml version="1.0" encoding="UTF-8"?>
<svg id="Layer_1" data-name="Layer 1" xmlns="http://www.w3.org/2000/svg" xmlns:xlink="http://www.w3.org/1999/xlink" viewBox="0 0 789.12 200.36">
  <defs>
    <style>
      .cls-1 {
        fill: url(#linear-gradient);
      }

      .cls-1, .cls-2, .cls-3 {
        stroke-width: 0px;
      }

      .cls-2 {
        fill: #fff;
      }

      .cls-3 {
        fill: url(#linear-gradient-2);
      }
    </style>
    <linearGradient id="linear-gradient" x1="6.81" y1="53.92" x2="106.79" y2="137.81" gradientUnits="userSpaceOnUse">
      <stop offset="0" stop-color="#018652"/>
      <stop offset=".1" stop-color="#088a55"/>
      <stop offset=".25" stop-color="#1c965e"/>
      <stop offset=".42" stop-color="#3caa6d"/>
      <stop offset=".57" stop-color="#5dbe7d"/>
      <stop offset=".7" stop-color="#42a167"/>
      <stop offset="1" stop-color="#005832"/>
    </linearGradient>
    <linearGradient id="linear-gradient-2" x1="301.23" y1="280.69" x2="643" y2="-61.08" gradientUnits="userSpaceOnUse">
      <stop offset="0" stop-color="#018652"/>
      <stop offset=".1" stop-color="#088a55"/>
      <stop offset=".25" stop-color="#1c965e"/>
      <stop offset=".42" stop-color="#3caa6d"/>
      <stop offset=".57" stop-color="#5dbe7d"/>
      <stop offset=".7" stop-color="#42a167"/>
      <stop offset="1" stop-color="#005832"/>
    </linearGradient>
  </defs>
  <path class="cls-1" d="M82.34,99.43c0-11.69,9.48-21.18,21.18-21.18h19.35v40.42h-40.52v-19.24ZM0,199.5h41.17v-40.42H0v40.42ZM41.17,159.08h41.17v-40.42h-41.17v40.42ZM0,118.67h41.17l.12-21.53c.17-31.12,25.27-56.36,56.39-56.69l25.18-.25V0h-25.31C43.67,0,0,43.67,0,97.55v21.12Z"/>
  <path class="cls-3" d="M185.17,109.32v34.79h-20.52v-60.89c0-23.38,8.02-31.8,35.34-31.8h21.74v17.8h-21.2c-11.28,0-15.36,4.35-15.36,15.22v7.34h78.15v17.53h-78.15ZM281.39,66.23c-5.03,0-6.93-1.9-6.93-6.25v-7.88c0-4.35,1.9-6.12,6.93-6.12h6.66c5.16,0,7.07,1.77,7.07,6.12v7.88c0,4.35-1.9,6.25-7.07,6.25h-6.66ZM274.46,144.11v-71.76h20.66v71.76h-20.66ZM385.9,144.11v-41.04c0-12.23-3.4-15.22-16.44-15.22h-22.02c-12.77,0-16.45,2.99-16.45,15.22v41.04h-20.25v-41.72c0-23.51,8.02-31.94,35.34-31.94h24.6c27.45,0,35.47,8.43,35.47,31.94v41.72h-20.25ZM425.99,144.11v-57.22h-10.33v-16.44h10.33v-20.79h20.66v20.79h23.24v16.44h-23.24v57.22h-20.66ZM499.24,114.75v3.4c0,8.97,2.72,10.6,12.23,10.6h23.92v15.36h-23.92c-23.38,0-32.48-8.43-32.48-28v-16.99c0-21.47,7.47-28.68,33.43-28.68h35.61c21.06,0,26.91,8.43,26.91,20.11v24.19h-75.7ZM554.69,92.19c0-4.89-2.17-6.12-8.29-6.12h-33.7c-10.19,0-13.45,1.09-13.45,11.69v3.94h55.45v-9.51ZM624.27,144.11c-27.32,0-35.33-8.43-35.33-31.8v-9.92c0-23.51,8.02-31.94,35.33-31.94h53.28v17.4h-52.6c-12.78,0-15.77,3.13-15.77,15.22v8.7c0,11.69,3.13,15.22,15.77,15.22h52.73v17.12h-53.41ZM768.88,144.11v-41.04c0-12.37-3.4-15.22-15.9-15.22h-40.36v56.26h-20.25V46.66h20.25v23.78h40.91c27.59,0,35.61,8.43,35.61,31.94v41.72h-20.25Z"/>
  <path class="cls-2" d="M164.65,199.52v-17.67c0-9.11,4-12.83,14.29-12.83h5.46v6.81h-5.23c-4.67,0-6.13,1.24-6.13,6.08v17.61h-8.38ZM196.65,187.36v1.41c0,3.71,1.12,4.39,5.06,4.39h9.9v6.36h-9.9c-9.68,0-13.45-3.49-13.45-11.59v-7.03c0-8.89,3.09-11.87,13.84-11.87h14.74c8.72,0,11.14,3.49,11.14,8.33v10.01h-31.34ZM219.61,178.03c0-2.03-.9-2.53-3.43-2.53h-13.95c-4.22,0-5.57.45-5.57,4.84v1.63h22.95v-3.94ZM260.67,197.49c-1.24,1.69-2.76,2.87-5.74,2.87s-4.56-1.13-5.79-2.87l-20.09-28.47h10.01l15.98,23.35,15.81-23.35h9.9l-20.09,28.47ZM296.71,199.52c-11.31,0-14.63-3.49-14.63-13.17v-4.11c0-9.73,3.32-13.22,14.63-13.22h10.18c11.36,0,14.68,3.49,14.68,13.28v4.05c0,9.68-3.32,13.17-14.68,13.17h-10.18ZM313.2,182.53c0-5.18-1.35-6.3-7.43-6.3h-7.93c-5.96,0-7.37,1.12-7.37,6.3v3.6c0,5.06,1.41,6.3,7.37,6.3h7.93c6.08,0,7.43-1.24,7.43-6.3v-3.6ZM327.93,199.52v-40.34h8.55v40.34h-8.55ZM357.57,199.52c-11.31,0-14.63-3.49-14.63-13.17v-17.33h8.44v17.1c0,5.18,1.74,6.25,6.86,6.25h8.78c5.46,0,6.86-1.07,6.86-6.25v-17.1h8.33v17.33c0,9.68-3.32,13.17-14.74,13.17h-9.9ZM390.41,199.52v-23.69h-4.28v-6.81h4.28v-8.61h8.55v8.61h9.62v6.81h-9.62v23.69h-8.55ZM415.5,167.28c-2.08,0-2.87-.79-2.87-2.59v-3.26c0-1.8.79-2.53,2.87-2.53h2.76c2.14,0,2.93.73,2.93,2.53v3.26c0,1.8-.79,2.59-2.93,2.59h-2.76ZM412.63,199.52v-29.7h8.55v29.7h-8.55ZM442.16,199.52c-11.31,0-14.63-3.49-14.63-13.17v-4.11c0-9.73,3.32-13.22,14.63-13.22h10.18c11.36,0,14.68,3.49,14.68,13.28v4.05c0,9.68-3.32,13.17-14.68,13.17h-10.18ZM458.65,182.53c0-5.18-1.35-6.3-7.43-6.3h-7.93c-5.96,0-7.37,1.12-7.37,6.3v3.6c0,5.06,1.41,6.3,7.37,6.3h7.93c6.08,0,7.43-1.24,7.43-6.3v-3.6ZM504.32,199.52v-16.99c0-5.06-1.41-6.3-6.81-6.3h-9.11c-5.29,0-6.81,1.24-6.81,6.3v16.99h-8.38v-17.27c0-9.73,3.32-13.22,14.63-13.22h10.18c11.36,0,14.68,3.49,14.68,13.22v17.27h-8.38ZM577.33,191.42c0,6.02-1.74,8.1-10.3,8.1h-26.22v-6.58h25.15c2.25,0,3.04-.62,3.04-2.7v-1.01c0-2.25-.79-2.53-2.81-2.53h-17.1c-6.92,0-8.22-2.7-8.22-8.05v-2.31c0-5.29,1.97-7.31,8.5-7.31h11.59v6.36h-9.56c-1.63,0-2.31.51-2.31,2.08v1.41c0,1.69.67,2.19,2.14,2.19h16.54c7.82,0,9.56,2.36,9.56,8.78v1.58ZM597.4,199.52c-11.31,0-14.63-3.49-14.63-13.17v-17.33h8.44v17.1c0,5.18,1.74,6.25,6.86,6.25h8.78c5.46,0,6.86-1.07,6.86-6.25v-17.1h8.33v17.33c0,9.68-3.32,13.17-14.74,13.17h-9.9ZM676.43,199.52v-18.34c0-3.77-1.41-4.95-4.61-4.95h-5.46c-5.01,0-6.25,1.24-6.25,4.95v18.34h-7.37v-18.34c0-3.71-1.13-4.95-6.3-4.95h-5.34c-3.32,0-4.61,1.18-4.61,4.95v18.34h-8.16v-19.58c0-7.48,2.87-10.91,10.91-10.91h7.37c6.19,0,8.66,1.74,9.79,5.34,1.07-3.6,3.71-5.34,9.73-5.34h7.59c8.05,0,10.92,3.43,10.92,10.91v19.58h-8.21ZM739.03,199.52v-18.34c0-3.77-1.41-4.95-4.61-4.95h-5.46c-5.01,0-6.25,1.24-6.25,4.95v18.34h-7.37v-18.34c0-3.71-1.13-4.95-6.3-4.95h-5.34c-3.32,0-4.61,1.18-4.61,4.95v18.34h-8.16v-19.58c0-7.48,2.87-10.91,10.91-10.91h7.37c6.19,0,8.66,1.74,9.79,5.34,1.07-3.6,3.71-5.34,9.73-5.34h7.59c8.05,0,10.92,3.43,10.92,10.91v19.58h-8.21ZM756.57,167.28c-2.08,0-2.87-.79-2.87-2.59v-3.26c0-1.8.79-2.53,2.87-2.53h2.76c2.14,0,2.93.73,2.93,2.53v3.26c0,1.8-.79,2.59-2.93,2.59h-2.76ZM753.7,199.52v-29.7h8.55v29.7h-8.55ZM770.63,199.52v-23.69h-4.28v-6.81h4.28v-8.61h8.55v8.61h9.62v6.81h-9.62v23.69h-8.55Z"/>
</svg>