<?xml version="1.0" encoding="UTF-8"?>
<svg id="Layer_1" data-name="Layer 1" xmlns="http://www.w3.org/2000/svg" version="1.1" xmlns:xlink="http://www.w3.org/1999/xlink" viewBox="0 0 826.8 242.9">
  <defs>
    <style>
      .cls-1 {
        fill: url(#linear-gradient);
      }

      .cls-1, .cls-2, .cls-3, .cls-4 {
        stroke-width: 0px;
      }

      .cls-2 {
        display: none;
        fill: #232323;
      }

      .cls-3 {
        fill: url(#linear-gradient-2);
      }

      .cls-4 {
        fill: #fff;
      }
    </style>
    <linearGradient id="linear-gradient" x1="25.6" y1="75.2" x2="125.6" y2="159.1" gradientUnits="userSpaceOnUse">
      <stop offset="0" stop-color="#0a2472"/>
      <stop offset=".1" stop-color="#0b2679"/>
      <stop offset=".3" stop-color="#0f2e8d"/>
      <stop offset=".5" stop-color="#163bad"/>
      <stop offset=".6" stop-color="#1a43bf"/>
      <stop offset=".7" stop-color="#1437a2"/>
      <stop offset="1" stop-color="#0a2471"/>
    </linearGradient>
    <linearGradient id="linear-gradient-2" x1="320.1" y1="301.9" x2="661.8" y2="-39.8" xlink:href="#linear-gradient"/>
  </defs>
  <rect class="cls-2" width="828.5" height="242.9"/>
  <g>
    <path class="cls-1" d="M101.2,120.7c0-11.7,9.5-21.2,21.2-21.2h19.3v40.4h-40.5v-19.2ZM18.8,220.8h41.2v-40.4H18.8v40.4ZM60,180.3h41.2v-40.4h-41.2v40.4ZM18.8,139.9h41.2v-21.5c.3-31.1,25.4-56.4,56.5-56.7l25.2-.2V21.3h-25.3c-53.9,0-97.5,43.7-97.5,97.5v21.1Z"/>
    <path class="cls-3" d="M204,130.6v34.8h-20.5v-60.9c0-23.4,8-31.8,35.3-31.8h21.7v17.8h-21.2c-11.3,0-15.4,4.3-15.4,15.2v7.3h78.1v17.5h-78.1ZM300.2,87.5c-5,0-6.9-1.9-6.9-6.3v-7.9c0-4.3,1.9-6.1,6.9-6.1h6.7c5.2,0,7.1,1.8,7.1,6.1v7.9c0,4.3-1.9,6.3-7.1,6.3h-6.7ZM293.3,165.4v-71.8h20.7v71.8h-20.7ZM404.7,165.4v-41c0-12.2-3.4-15.2-16.4-15.2h-22c-12.8,0-16.4,3-16.4,15.2v41h-20.2v-41.7c0-23.5,8-31.9,35.3-31.9h24.6c27.5,0,35.5,8.4,35.5,31.9v41.7h-20.3ZM444.8,165.4v-57.2h-10.3v-16.4h10.3v-20.8h20.7v20.8h23.2v16.4h-23.2v57.2h-20.7ZM518.1,136v3.4c0,9,2.7,10.6,12.2,10.6h23.9v15.4h-23.9c-23.4,0-32.5-8.4-32.5-28v-17c0-21.5,7.5-28.7,33.4-28.7h35.6c21.1,0,26.9,8.4,26.9,20.1v24.2h-75.7ZM573.5,113.4c0-4.9-2.2-6.1-8.3-6.1h-33.7c-10.2,0-13.5,1.1-13.5,11.7v3.9h55.4v-9.5ZM643.1,165.4c-27.3,0-35.3-8.4-35.3-31.8v-9.9c0-23.5,8-31.9,35.3-31.9h53.3v17.4h-52.6c-12.8,0-15.8,3.1-15.8,15.2v8.7c0,11.7,3.1,15.2,15.8,15.2h52.7v17.1h-53.4ZM787.7,165.4v-41c0-12.4-3.4-15.2-15.9-15.2h-40.4v56.3h-20.3v-97.4h20.3v23.8h40.9c27.6,0,35.6,8.4,35.6,31.9v41.7h-20.2Z"/>
    <path class="cls-4" d="M183.5,220.8v-17.7c0-9.1,4-12.8,14.3-12.8h5.5v6.8h-5.2c-4.7,0-6.1,1.2-6.1,6.1v17.6h-8.4ZM215.5,208.6v1.4c0,3.7,1.1,4.4,5.1,4.4h9.9v6.4h-9.9c-9.7,0-13.4-3.5-13.4-11.6v-7c0-8.9,3.1-11.9,13.8-11.9h14.7c8.7,0,11.1,3.5,11.1,8.3v10h-31.3ZM238.4,199.3c0-2-.9-2.5-3.4-2.5h-14c-4.2,0-5.6.5-5.6,4.8v1.6h23v-3.9ZM279.5,218.7c-1.2,1.7-2.8,2.9-5.7,2.9s-4.6-1.1-5.8-2.9l-20.1-28.5h10l16,23.3,15.8-23.3h9.9l-20.1,28.5ZM315.5,220.8c-11.3,0-14.6-3.5-14.6-13.2v-4.1c0-9.7,3.3-13.2,14.6-13.2h10.2c11.4,0,14.7,3.5,14.7,13.3v4.1c0,9.7-3.3,13.2-14.7,13.2h-10.2ZM332,203.8c0-5.2-1.4-6.3-7.4-6.3h-7.9c-6,0-7.4,1.1-7.4,6.3v3.6c0,5.1,1.4,6.3,7.4,6.3h7.9c6.1,0,7.4-1.2,7.4-6.3v-3.6ZM346.7,220.8v-40.3h8.6v40.3h-8.6ZM376.4,220.8c-11.3,0-14.6-3.5-14.6-13.2v-17.3h8.4v17.1c0,5.2,1.7,6.2,6.9,6.2h8.8c5.5,0,6.9-1.1,6.9-6.2v-17.1h8.3v17.3c0,9.7-3.3,13.2-14.7,13.2h-9.9ZM409.2,220.8v-23.7h-4.3v-6.8h4.3v-8.6h8.6v8.6h9.6v6.8h-9.6v23.7h-8.6ZM434.3,188.5c-2.1,0-2.9-.8-2.9-2.6v-3.3c0-1.8.8-2.5,2.9-2.5h2.8c2.1,0,2.9.7,2.9,2.5v3.3c0,1.8-.8,2.6-2.9,2.6h-2.8ZM431.5,220.8v-29.7h8.6v29.7h-8.6ZM461,220.8c-11.3,0-14.6-3.5-14.6-13.2v-4.1c0-9.7,3.3-13.2,14.6-13.2h10.2c11.4,0,14.7,3.5,14.7,13.3v4.1c0,9.7-3.3,13.2-14.7,13.2h-10.2ZM477.5,203.8c0-5.2-1.4-6.3-7.4-6.3h-7.9c-6,0-7.4,1.1-7.4,6.3v3.6c0,5.1,1.4,6.3,7.4,6.3h7.9c6.1,0,7.4-1.2,7.4-6.3v-3.6ZM523.1,220.8v-17c0-5.1-1.4-6.3-6.8-6.3h-9.1c-5.3,0-6.8,1.2-6.8,6.3v17h-8.4v-17.3c0-9.7,3.3-13.2,14.6-13.2h10.2c11.4,0,14.7,3.5,14.7,13.2v17.3h-8.4ZM596.1,212.7c0,6-1.7,8.1-10.3,8.1h-26.2v-6.6h25.1c2.3,0,3-.6,3-2.7v-1c0-2.3-.8-2.5-2.8-2.5h-17.1c-6.9,0-8.2-2.7-8.2-8v-2.3c0-5.3,2-7.3,8.5-7.3h11.6v6.4h-9.6c-1.6,0-2.3.5-2.3,2.1v1.4c0,1.7.7,2.2,2.1,2.2h16.5c7.8,0,9.6,2.4,9.6,8.8v1.6ZM616.2,220.8c-11.3,0-14.6-3.5-14.6-13.2v-17.3h8.4v17.1c0,5.2,1.7,6.2,6.9,6.2h8.8c5.5,0,6.9-1.1,6.9-6.2v-17.1h8.3v17.3c0,9.7-3.3,13.2-14.7,13.2h-9.9ZM695.3,220.8v-18.3c0-3.8-1.4-4.9-4.6-4.9h-5.5c-5,0-6.2,1.2-6.2,4.9v18.3h-7.4v-18.3c0-3.7-1.1-4.9-6.3-4.9h-5.3c-3.3,0-4.6,1.2-4.6,4.9v18.3h-8.2v-19.6c0-7.5,2.9-10.9,10.9-10.9h7.4c6.2,0,8.7,1.7,9.8,5.3,1.1-3.6,3.7-5.3,9.7-5.3h7.6c8,0,10.9,3.4,10.9,10.9v19.6h-8.2ZM757.9,220.8v-18.3c0-3.8-1.4-4.9-4.6-4.9h-5.5c-5,0-6.2,1.2-6.2,4.9v18.3h-7.4v-18.3c0-3.7-1.1-4.9-6.3-4.9h-5.3c-3.3,0-4.6,1.2-4.6,4.9v18.3h-8.2v-19.6c0-7.5,2.9-10.9,10.9-10.9h7.4c6.2,0,8.7,1.7,9.8,5.3,1.1-3.6,3.7-5.3,9.7-5.3h7.6c8,0,10.9,3.4,10.9,10.9v19.6h-8.2ZM775.4,188.5c-2.1,0-2.9-.8-2.9-2.6v-3.3c0-1.8.8-2.5,2.9-2.5h2.8c2.1,0,2.9.7,2.9,2.5v3.3c0,1.8-.8,2.6-2.9,2.6h-2.8ZM772.5,220.8v-29.7h8.6v29.7h-8.6ZM789.5,220.8v-23.7h-4.3v-6.8h4.3v-8.6h8.6v8.6h9.6v6.8h-9.6v23.7h-8.6Z"/>
  </g>
</svg>