<?xml version="1.0" encoding="UTF-8"?>
<svg id="Layer_2" data-name="Layer 2" xmlns="http://www.w3.org/2000/svg" viewBox="0 0 744.79 189.1">
  <defs>
    <style>
      .cls-1 {
        fill: #ed145a;
      }

      .cls-1, .cls-2 {
        stroke-width: 0px;
      }

      .cls-2 {
        fill: #fff;
      }
    </style>
  </defs>
  <g id="Layer_2-2" data-name="Layer 2">
    <g>
      <path class="cls-1" d="m77.71,112h38.25v-38.15h-18.26c-11.04,0-19.99,8.95-19.99,19.99v18.16Z"/>
      <rect class="cls-1" y="150.15" width="38.86" height="38.15"/>
      <rect class="cls-1" x="38.86" y="112" width="38.86" height="38.15"/>
      <path class="cls-1" d="m0,112h38.86l.11-20.32c.16-29.37,23.85-53.19,53.23-53.51l23.76-.23V0h-23.89C41.22,0,0,41.22,0,92.07v19.93Z"/>
      <g>
        <path class="cls-1" d="m174.76,103.17v32.84h-19.37v-57.46c0-22.06,7.57-30.01,33.35-30.01h20.52v16.8h-20.01c-10.65,0-14.49,4.1-14.49,14.37v6.93h73.76v16.55h-73.76Z"/>
        <path class="cls-1" d="m265.58,62.51c-4.75,0-6.54-1.8-6.54-5.9v-7.44c0-4.1,1.8-5.77,6.54-5.77h6.29c4.87,0,6.67,1.67,6.67,5.77v7.44c0,4.1-1.8,5.9-6.67,5.9h-6.29Zm-6.54,73.5v-67.73h19.5v67.73h-19.5Z"/>
        <path class="cls-1" d="m364.22,136.01v-38.74c0-11.54-3.21-14.37-15.52-14.37h-20.78c-12.06,0-15.52,2.82-15.52,14.37v38.74h-19.11v-39.38c0-22.19,7.57-30.14,33.35-30.14h23.22c25.91,0,33.48,7.95,33.48,30.14v39.38h-19.11Z"/>
        <path class="cls-1" d="m402.06,136.01v-54h-9.75v-15.52h9.75v-19.63h19.5v19.63h21.93v15.52h-21.93v54h-19.5Z"/>
        <path class="cls-1" d="m471.19,108.3v3.21c0,8.47,2.57,10.01,11.54,10.01h22.57v14.49h-22.57c-22.06,0-30.66-7.95-30.66-26.42v-16.03c0-20.27,7.05-27.06,31.55-27.06h33.61c19.88,0,25.4,7.95,25.4,18.98v22.83h-71.45Zm52.33-21.29c0-4.62-2.05-5.77-7.82-5.77h-31.81c-9.62,0-12.7,1.03-12.7,11.03v3.72h52.33v-8.98Z"/>
        <path class="cls-1" d="m589.2,136.01c-25.78,0-33.35-7.95-33.35-30.01v-9.36c0-22.19,7.57-30.14,33.35-30.14h50.28v16.42h-49.64c-12.06,0-14.88,2.95-14.88,14.37v8.21c0,11.03,2.95,14.37,14.88,14.37h49.77v16.16h-50.41Z"/>
        <path class="cls-1" d="m725.68,136.01v-38.74c0-11.67-3.21-14.37-15.01-14.37h-38.1v53.1h-19.11V44.04h19.11v22.45h38.61c26.04,0,33.61,7.95,33.61,30.14v39.38h-19.11Z"/>
      </g>
      <g>
        <path class="cls-2" d="m155.4,188.31v-16.67c0-8.6,3.77-12.11,13.49-12.11h5.15v6.42h-4.94c-4.41,0-5.79,1.17-5.79,5.73v16.62h-7.91Z"/>
        <path class="cls-2" d="m185.6,176.84v1.33c0,3.5,1.06,4.14,4.78,4.14h9.34v6h-9.34c-9.13,0-12.69-3.29-12.69-10.94v-6.64c0-8.39,2.92-11.2,13.06-11.2h13.91c8.23,0,10.51,3.29,10.51,7.86v9.45h-29.58Zm21.66-8.81c0-1.91-.85-2.39-3.24-2.39h-13.17c-3.98,0-5.26.43-5.26,4.57v1.54h21.66v-3.72Z"/>
        <path class="cls-2" d="m246.02,186.4c-1.17,1.59-2.6,2.71-5.42,2.71s-4.3-1.06-5.47-2.71l-18.96-26.87h9.45l15.08,22.04,14.92-22.04h9.34l-18.96,26.87Z"/>
        <path class="cls-2" d="m280.04,188.31c-10.67,0-13.81-3.29-13.81-12.43v-3.88c0-9.19,3.13-12.48,13.81-12.48h9.61c10.73,0,13.86,3.29,13.86,12.53v3.82c0,9.13-3.13,12.43-13.86,12.43h-9.61Zm15.56-16.04c0-4.89-1.27-5.95-7.01-5.95h-7.49c-5.63,0-6.96,1.06-6.96,5.95v3.4c0,4.78,1.33,5.95,6.96,5.95h7.49c5.73,0,7.01-1.17,7.01-5.95v-3.4Z"/>
        <path class="cls-2" d="m309.5,188.31v-38.07h8.07v38.07h-8.07Z"/>
        <path class="cls-2" d="m337.48,188.31c-10.67,0-13.81-3.29-13.81-12.43v-16.35h7.96v16.14c0,4.89,1.65,5.89,6.48,5.89h8.28c5.15,0,6.48-1.01,6.48-5.89v-16.14h7.86v16.35c0,9.13-3.13,12.43-13.91,12.43h-9.34Z"/>
        <path class="cls-2" d="m368.48,188.31v-22.36h-4.04v-6.42h4.04v-8.12h8.07v8.12h9.08v6.42h-9.08v22.36h-8.07Z"/>
        <path class="cls-2" d="m392.16,157.88c-1.96,0-2.71-.74-2.71-2.44v-3.08c0-1.7.74-2.39,2.71-2.39h2.6c2.02,0,2.76.69,2.76,2.39v3.08c0,1.7-.74,2.44-2.76,2.44h-2.6Zm-2.71,30.43v-28.04h8.07v28.04h-8.07Z"/>
        <path class="cls-2" d="m417.32,188.31c-10.67,0-13.81-3.29-13.81-12.43v-3.88c0-9.19,3.13-12.48,13.81-12.48h9.61c10.73,0,13.86,3.29,13.86,12.53v3.82c0,9.13-3.13,12.43-13.86,12.43h-9.61Zm15.56-16.04c0-4.89-1.27-5.95-7.01-5.95h-7.49c-5.63,0-6.96,1.06-6.96,5.95v3.4c0,4.78,1.33,5.95,6.96,5.95h7.49c5.73,0,7.01-1.17,7.01-5.95v-3.4Z"/>
        <path class="cls-2" d="m475.99,188.31v-16.04c0-4.78-1.33-5.95-6.43-5.95h-8.6c-4.99,0-6.43,1.17-6.43,5.95v16.04h-7.91v-16.3c0-9.19,3.13-12.48,13.81-12.48h9.61c10.73,0,13.86,3.29,13.86,12.48v16.3h-7.91Z"/>
        <path class="cls-2" d="m544.89,180.66c0,5.68-1.65,7.65-9.72,7.65h-24.74v-6.21h23.74c2.12,0,2.87-.58,2.87-2.55v-.96c0-2.12-.74-2.39-2.65-2.39h-16.14c-6.53,0-7.75-2.55-7.75-7.59v-2.18c0-4.99,1.86-6.9,8.02-6.9h10.94v6h-9.03c-1.54,0-2.18.48-2.18,1.96v1.33c0,1.59.64,2.07,2.02,2.07h15.61c7.38,0,9.03,2.23,9.03,8.28v1.49Z"/>
        <path class="cls-2" d="m563.84,188.31c-10.67,0-13.81-3.29-13.81-12.43v-16.35h7.96v16.14c0,4.89,1.65,5.89,6.48,5.89h8.28c5.15,0,6.48-1.01,6.48-5.89v-16.14h7.86v16.35c0,9.13-3.13,12.43-13.91,12.43h-9.34Z"/>
        <path class="cls-2" d="m638.43,188.31v-17.31c0-3.56-1.33-4.67-4.35-4.67h-5.15c-4.73,0-5.89,1.17-5.89,4.67v17.31h-6.96v-17.31c0-3.5-1.06-4.67-5.95-4.67h-5.04c-3.13,0-4.35,1.11-4.35,4.67v17.31h-7.7v-18.48c0-7.06,2.71-10.3,10.3-10.3h6.96c5.84,0,8.18,1.65,9.24,5.04,1.01-3.4,3.5-5.04,9.19-5.04h7.17c7.59,0,10.3,3.24,10.3,10.3v18.48h-7.75Z"/>
        <path class="cls-2" d="m697.51,188.31v-17.31c0-3.56-1.33-4.67-4.35-4.67h-5.15c-4.73,0-5.89,1.17-5.89,4.67v17.31h-6.96v-17.31c0-3.5-1.06-4.67-5.95-4.67h-5.04c-3.13,0-4.35,1.11-4.35,4.67v17.31h-7.7v-18.48c0-7.06,2.71-10.3,10.3-10.3h6.96c5.84,0,8.18,1.65,9.24,5.04,1.01-3.4,3.5-5.04,9.19-5.04h7.17c7.59,0,10.3,3.24,10.3,10.3v18.48h-7.75Z"/>
        <path class="cls-2" d="m714.06,157.88c-1.96,0-2.71-.74-2.71-2.44v-3.08c0-1.7.74-2.39,2.71-2.39h2.6c2.02,0,2.76.69,2.76,2.39v3.08c0,1.7-.74,2.44-2.76,2.44h-2.6Zm-2.71,30.43v-28.04h8.07v28.04h-8.07Z"/>
        <path class="cls-2" d="m727.33,188.31v-22.36h-4.04v-6.42h4.04v-8.12h8.07v8.12h9.08v6.42h-9.08v22.36h-8.07Z"/>
      </g>
    </g>
  </g>
</svg>