<?xml version="1.0" encoding="utf-8"?>
<!-- Generator: Adobe Illustrator 28.1.0, SVG Export Plug-In . SVG Version: 6.00 Build 0)  -->
<svg version="1.1" id="Layer_1" xmlns="http://www.w3.org/2000/svg" xmlns:xlink="http://www.w3.org/1999/xlink" x="0px" y="0px"
	 viewBox="0 0 703.2 214.4" style="enable-background:new 0 0 703.2 214.4;" xml:space="preserve">
<style type="text/css">
	.st0{fill:url(#SVGID_1_);}
	.st1{fill:#FFFFFF;}
	.st2{fill:url(#SVGID_00000102530816182852246100000007186589617282401726_);}
</style>
<image style="display:none;overflow:visible;" width="736" height="552" xlink:href="EBE92706.jpg"  transform="matrix(1 0 0 1 82.7219 -178.6383)">
</image>
<g>
	<linearGradient id="SVGID_1_" gradientUnits="userSpaceOnUse" x1="114.4376" y1="202.0022" x2="114.4376" y2="14.0088">
		<stop  offset="0.2458" style="stop-color:#2F80ED"/>
		<stop  offset="0.3352" style="stop-color:#3993EE"/>
		<stop  offset="0.4866" style="stop-color:#45ACF0"/>
		<stop  offset="0.6443" style="stop-color:#4FBEF1"/>
		<stop  offset="0.8107" style="stop-color:#54C9F2"/>
		<stop  offset="1" style="stop-color:#56CCF2"/>
	</linearGradient>
	<path class="st0" d="M92.1,95.3H113c5.7-22,25.6-38.3,49.4-38.3c14.1,0,26.8,5.7,36.1,14.9l30.4-30.4c-17-17-40.5-27.5-66.5-27.5
		c-38.6,0-71.8,23.3-86.3,56.6l16-0.2V95.3z M102.3,59.4h11.3v11.3h-11.3V59.4z M198.5,144.1l30.2,30.5
		c-17,16.9-40.4,27.4-66.3,27.4c-38.4,0-71.5-23.1-86-56.1l15.5,0.1l-0.1,10.8H103V146H91.9v-25H113c5.7,21.9,25.7,38.1,49.4,38.1
		C176.5,159,189.2,153.3,198.5,144.1z M91.9,95.9v25l-22.9,0c-1.4-10.3,0-25,0-25H91.9z M129.7,120.6h-12.9v-12.9h12.9V120.6z
		 M62.2,114.6H49.9v-12.3h12.3V114.6z M18.8,114.9H8v-10.8h10.8V114.9z M7.4,88.2H0v-7.4h7.4V88.2z M24.5,130.8h-7.4v-7.4h7.4V130.8
		z M37.1,97.5H20.4V80.8h16.7V97.5z M67.1,86.4H42V61.3h25.1V86.4z M47.3,135.2H32.7v-14.6h14.6V135.2z M70.9,158.8H47.3v-23.6h23.6
		V158.8z M142.5,102.2h-8.7v-8.7h8.7V102.2z"/>
	<path class="st1" d="M256.1,181.5v-12.6c0-6.5,2.9-9.2,10.2-9.2h3.9v4.9h-3.7c-3.3,0-4.4,0.9-4.4,4.3v12.6H256.1z M279,172.8v1
		c0,2.7,0.8,3.1,3.6,3.1h7.1v4.6h-7.1c-6.9,0-9.6-2.5-9.6-8.3v-5c0-6.4,2.2-8.5,9.9-8.5h10.6c6.2,0,8,2.5,8,6v7.2H279z M295.4,166.1
		c0-1.5-0.6-1.8-2.5-1.8h-10c-3,0-4,0.3-4,3.5v1.2h16.4V166.1z M324.8,180.1c-0.9,1.2-2,2.1-4.1,2.1c-2.2,0-3.3-0.8-4.1-2.1
		l-14.4-20.4h7.2l11.4,16.7l11.3-16.7h7.1L324.8,180.1z M350.6,181.5c-8.1,0-10.5-2.5-10.5-9.4v-2.9c0-7,2.4-9.5,10.5-9.5h7.3
		c8.1,0,10.5,2.5,10.5,9.5v2.9c0,6.9-2.4,9.4-10.5,9.4H350.6z M362.4,169.4c0-3.7-1-4.5-5.3-4.5h-5.7c-4.3,0-5.3,0.8-5.3,4.5v2.6
		c0,3.6,1,4.5,5.3,4.5h5.7c4.3,0,5.3-0.9,5.3-4.5V169.4z M372.9,181.5v-28.9h6.1v28.9H372.9z M394.2,181.5c-8.1,0-10.5-2.5-10.5-9.4
		v-12.4h6v12.2c0,3.7,1.2,4.5,4.9,4.5h6.3c3.9,0,4.9-0.8,4.9-4.5v-12.2h6v12.4c0,6.9-2.4,9.4-10.6,9.4H394.2z M417.7,181.5v-17h-3.1
		v-4.9h3.1v-6.2h6.1v6.2h6.9v4.9h-6.9v17H417.7z M435.6,158.4c-1.5,0-2.1-0.6-2.1-1.9v-2.3c0-1.3,0.6-1.8,2.1-1.8h2
		c1.5,0,2.1,0.5,2.1,1.8v2.3c0,1.3-0.6,1.9-2.1,1.9H435.6z M433.6,181.5v-21.3h6.1v21.3H433.6z M454.7,181.5
		c-8.1,0-10.5-2.5-10.5-9.4v-2.9c0-7,2.4-9.5,10.5-9.5h7.3c8.1,0,10.5,2.5,10.5,9.5v2.9c0,6.9-2.4,9.4-10.5,9.4H454.7z M466.5,169.4
		c0-3.7-1-4.5-5.3-4.5h-5.7c-4.3,0-5.3,0.8-5.3,4.5v2.6c0,3.6,1,4.5,5.3,4.5h5.7c4.3,0,5.3-0.9,5.3-4.5V169.4z M499.2,181.5v-12.2
		c0-3.6-1-4.5-4.9-4.5h-6.5c-3.8,0-4.9,0.9-4.9,4.5v12.2h-6v-12.4c0-7,2.4-9.5,10.5-9.5h7.3c8.1,0,10.5,2.5,10.5,9.5v12.4H499.2z
		 M551.5,175.7c0,4.3-1.2,5.8-7.4,5.8h-18.8v-4.7h18c1.6,0,2.2-0.4,2.2-1.9v-0.7c0-1.6-0.6-1.8-2-1.8h-12.2c-5,0-5.9-1.9-5.9-5.8
		v-1.7c0-3.8,1.4-5.2,6.1-5.2h8.3v4.6h-6.8c-1.2,0-1.7,0.4-1.7,1.5v1c0,1.2,0.5,1.6,1.5,1.6h11.8c5.6,0,6.8,1.7,6.8,6.3V175.7z
		 M565.8,181.5c-8.1,0-10.5-2.5-10.5-9.4v-12.4h6v12.2c0,3.7,1.2,4.5,4.9,4.5h6.3c3.9,0,4.9-0.8,4.9-4.5v-12.2h6v12.4
		c0,6.9-2.4,9.4-10.6,9.4H565.8z M622.4,181.5v-13.1c0-2.7-1-3.5-3.3-3.5h-3.9c-3.6,0-4.5,0.9-4.5,3.5v13.1h-5.3v-13.1
		c0-2.7-0.8-3.5-4.5-3.5h-3.8c-2.4,0-3.3,0.8-3.3,3.5v13.1H588v-14c0-5.4,2.1-7.8,7.8-7.8h5.3c4.4,0,6.2,1.2,7,3.8
		c0.8-2.6,2.7-3.8,7-3.8h5.4c5.8,0,7.8,2.5,7.8,7.8v14H622.4z M667.2,181.5v-13.1c0-2.7-1-3.5-3.3-3.5H660c-3.6,0-4.5,0.9-4.5,3.5
		v13.1h-5.3v-13.1c0-2.7-0.8-3.5-4.5-3.5h-3.8c-2.4,0-3.3,0.8-3.3,3.5v13.1h-5.8v-14c0-5.4,2.1-7.8,7.8-7.8h5.3c4.4,0,6.2,1.2,7,3.8
		c0.8-2.6,2.7-3.8,7-3.8h5.4c5.8,0,7.8,2.5,7.8,7.8v14H667.2z M679.8,158.4c-1.5,0-2.1-0.6-2.1-1.9v-2.3c0-1.3,0.6-1.8,2.1-1.8h2
		c1.5,0,2.1,0.5,2.1,1.8v2.3c0,1.3-0.6,1.9-2.1,1.9H679.8z M677.7,181.5v-21.3h6.1v21.3H677.7z M689.8,181.5v-17h-3.1v-4.9h3.1v-6.2
		h6.1v6.2h6.9v4.9h-6.9v17H689.8z"/>
	
		<linearGradient id="SVGID_00000087399198371327391180000010735028061940448388_" gradientUnits="userSpaceOnUse" x1="459.6637" y1="160.1915" x2="491.5041" y2="10.3942">
		<stop  offset="0.2458" style="stop-color:#2F80ED"/>
		<stop  offset="0.3352" style="stop-color:#3993EE"/>
		<stop  offset="0.4866" style="stop-color:#45ACF0"/>
		<stop  offset="0.6443" style="stop-color:#4FBEF1"/>
		<stop  offset="0.8107" style="stop-color:#54C9F2"/>
		<stop  offset="1" style="stop-color:#56CCF2"/>
	</linearGradient>
	<path style="fill:url(#SVGID_00000087399198371327391180000010735028061940448388_);" d="M288.4,122c-24.7,0-32-7.6-32-28.8V66.9
		c0-21.1,7.3-28.8,32-28.8h58.1v16.1h-57.3c-11.4,0-14.3,3.3-14.3,13.6v24.6c0,10.4,2.8,13.5,14.4,13.5h57.2v16H288.4z M376.5,90.1
		c0,7.4,3,9.8,10.4,9.8h40.9V55.4h17.8v65.4c0,14.9-7,21.1-23.6,21.1h-26.7v-15h25.1c5,0,7.4-1.6,7.4-7.1v-5.4h-42
		c-19.9,0-27.4-7.5-27.4-23.6V55.4h18.1V90.1z M491.9,122c-24.7,0-32-7.6-32-28.8V33.9h18.3v21.5h37c24.8,0,32.1,7.6,32.1,28.9v9
		c0,21.1-7.3,28.8-32.1,28.8H491.9z M529.1,84.9c0-11.6-2.8-13.8-14.4-13.8h-36.4v21.8c0,10.9,2.7,13.6,14.3,13.6h22.1
		c11.6,0,14.4-2.7,14.4-13.8V84.9z M579,95.5v3.1c0,8.1,2.5,9.6,11.1,9.6h21.6V122H590c-21.1,0-29.4-7.6-29.4-25.3V81.3
		c0-19.4,6.8-25.9,30.2-25.9h32.2c19.1,0,24.3,7.6,24.3,18.2v21.9H579z M629.1,75.1c0-4.4-2-5.5-7.5-5.5h-30.5
		c-9.2,0-12.2,1-12.2,10.6v3.6h50.1V75.1z M660.1,122V83.4c0-19.9,8.7-28,31.2-28h11.9v14.9h-11.4c-10.2,0-13.4,2.7-13.4,13.3V122
		H660.1z"/>
</g>
</svg>
