<?xml version="1.0" encoding="UTF-8"?>
<svg id="Layer_2" data-name="Layer 2" xmlns="http://www.w3.org/2000/svg" viewBox="0 0 245.19 204.6">
  <defs>
    <style>
      .cls-1 {
        fill: #999;
      }

      .cls-1, .cls-2 {
        stroke-width: 0px;
      }

      .cls-2 {
        fill: #fff;
      }
    </style>
  </defs>
  <g id="Connect_2023_Logo" data-name="Connect 2023 Logo">
    <g id="Opt_4" data-name="Opt 4">
      <g>
        <path class="cls-2" d="M166.97,72.89c.08,1.95.01,3.93-.21,5.94-2.06,18.47-17.31,33.11-35.84,34.39-23.59,1.63-43.08-17.81-41.53-41.39,1.22-18.49,15.74-33.76,34.14-35.94,1.91-.23,3.8-.31,5.65-.26,6.27.17,12.02-3.45,14.82-9.05l1.1-2.21c5.43-10.86-2.08-23.87-14.21-24.32-2.09-.08-4.21-.07-6.35.04C86.47,1.9,55.52,32.87,53.77,70.95c-2.02,43.96,34.1,80.02,78.09,77.89,38.42-1.86,69.45-33.43,70.72-71.87.04-1.21.05-2.41.03-3.6-.2-13.61-15.01-22-26.94-15.46h0c-5.45,2.99-8.95,8.76-8.69,14.98Z"/>
        <circle class="cls-1" cx="168.62" cy="33.99" r="17.81"/>
        <g>
          <path class="cls-1" d="M56.62,166.85c-7.14,0-13.35,3.97-16.56,9.81h-4.63c-3.21-5.85-9.42-9.81-16.56-9.81-10.42,0-18.87,8.45-18.87,18.87s8.45,18.87,18.87,18.87c6.83,0,12.81-3.63,16.12-9.06h5.5c3.31,5.43,9.29,9.06,16.12,9.06,10.42,0,18.87-8.45,18.87-18.87s-8.45-18.87-18.87-18.87ZM55.86,194.79c-3.65,0-6.8-2.17-8.23-5.28h-20.54c-1.43,3.12-4.57,5.28-8.23,5.28-5,0-9.06-4.06-9.06-9.06s4.06-9.06,9.06-9.06c3.94,0,7.29,2.52,8.53,6.04h19.93c1.24-3.52,4.59-6.04,8.53-6.04,5,0,9.06,4.06,9.06,9.06s-4.06,9.06-9.06,9.06Z"/>
          <path class="cls-2" d="M108.42,172.94c2.34,2.54,3.5,6.02,3.5,10.45v19.53h-10.18v-18.15c0-2.24-.58-3.97-1.74-5.21-1.16-1.24-2.72-1.86-4.67-1.86s-3.51.62-4.67,1.86c-1.16,1.24-1.74,2.98-1.74,5.21v18.15h-10.24v-33.42h10.24v4.43c1.04-1.48,2.44-2.64,4.19-3.5,1.76-.86,3.73-1.29,5.93-1.29,3.91,0,7.04,1.27,9.37,3.8Z"/>
          <path class="cls-2" d="M147.29,172.94c2.34,2.54,3.5,6.02,3.5,10.45v19.53h-10.18v-18.15c0-2.24-.58-3.97-1.74-5.21-1.16-1.24-2.72-1.86-4.67-1.86s-3.51.62-4.67,1.86c-1.16,1.24-1.74,2.98-1.74,5.21v18.15h-10.24v-33.42h10.24v4.43c1.04-1.48,2.44-2.64,4.19-3.5,1.76-.86,3.73-1.29,5.93-1.29,3.91,0,7.04,1.27,9.37,3.8Z"/>
          <path class="cls-2" d="M187.75,188.66h-23.18c.16,2.08.83,3.66,2.01,4.76,1.18,1.1,2.62,1.65,4.34,1.65,2.55,0,4.33-1.08,5.33-3.23h10.9c-.56,2.2-1.57,4.17-3.02,5.93-1.46,1.76-3.29,3.14-5.48,4.13-2.2,1-4.65,1.5-7.37,1.5-3.27,0-6.19-.7-8.75-2.1-2.56-1.4-4.55-3.39-5.99-5.99-1.44-2.59-2.16-5.63-2.16-9.1s.71-6.51,2.13-9.1c1.42-2.59,3.4-4.59,5.96-5.99,2.55-1.4,5.49-2.1,8.8-2.1s6.11.68,8.62,2.04c2.52,1.36,4.48,3.29,5.9,5.81,1.42,2.52,2.13,5.45,2.13,8.8,0,.96-.06,1.96-.18,3ZM177.45,182.97c0-1.76-.6-3.15-1.8-4.19-1.2-1.04-2.7-1.56-4.49-1.56s-3.17.5-4.34,1.5c-1.18,1-1.91,2.42-2.19,4.25h12.82Z"/>
          <path class="cls-2" d="M191.92,177.1c1.42-2.59,3.39-4.59,5.93-5.99,2.54-1.4,5.44-2.1,8.71-2.1,4.19,0,7.7,1.1,10.51,3.29,2.82,2.2,4.66,5.29,5.54,9.28h-10.9c-.92-2.55-2.7-3.83-5.33-3.83-1.88,0-3.37.73-4.49,2.19-1.12,1.46-1.68,3.54-1.68,6.26s.56,4.8,1.68,6.26c1.12,1.46,2.62,2.19,4.49,2.19,2.64,0,4.41-1.28,5.33-3.83h10.9c-.88,3.91-2.74,6.99-5.57,9.22-2.84,2.24-6.33,3.35-10.48,3.35-3.27,0-6.18-.7-8.71-2.1-2.54-1.4-4.51-3.39-5.93-5.99-1.42-2.59-2.13-5.63-2.13-9.1s.71-6.51,2.13-9.1Z"/>
          <path class="cls-2" d="M245.19,194.23v8.69h-5.21c-3.71,0-6.61-.91-8.69-2.73-2.08-1.82-3.11-4.78-3.11-8.89v-13.3h-4.07v-8.5h4.07v-8.15h10.24v8.15h6.71v8.5h-6.71v13.42c0,1,.24,1.72.72,2.16.48.44,1.28.66,2.4.66h3.65Z"/>
        </g>
      </g>
    </g>
  </g>
</svg>